<?xml version="1.0" encoding="UTF-8"?>
<svg id="Camada_2" xmlns="http://www.w3.org/2000/svg" viewBox="0 0 111.65 54.7">
  <defs>
    <style>
      .cls-1 {
        fill: #fff;
      }
    </style>
  </defs>
  <g id="Camada_2-2" data-name="Camada_2">
    <path class="cls-1" d="M107.79,27.19L55.83,0h0s0,0,0,0L3.86,27.19c-3.47,1.82-4.85,6.07-3.11,9.58l5.41-2.83,20.52,10.45,3.22-6.31-16.04-8.17,21.25-11.12v2.71c0,11.29,7.5,20.58,17.11,21.7v-5.76c-6.9-1.07-12.24-8.18-12.24-16.8v-4.39l12.29-6.43v37.99c0,3.81,3.09,6.9,6.9,6.9v-11.48c9.73-.99,17.37-10.33,17.37-21.72v-2.71l21.24,11.11-16.05,8.18,3.22,6.31,20.54-10.46,5.42,2.84c1.74-3.51.36-7.76-3.11-9.58ZM71.66,20.63c0,8.73-5.47,15.91-12.49,16.85V9.7l12.49,6.54v4.39Z"/>
  </g>
</svg>